<?xml version="1.0" encoding="UTF-8"?>
<svg id="Ebene_1" data-name="Ebene 1" xmlns="http://www.w3.org/2000/svg" viewBox="0 0 64 64">
  <defs>
    <style type="text/css">
      .cls-1 {
        fill: none;
        stroke: #242427;
        stroke-miterlimit: 10;
        stroke-width: 1.5px;
      }


      
    </style>




  </defs>
  <path vector-effect="non-scaling-stroke" class="cls-1"
    d="m31.66,23.58c-2.26,0-2.26-2.26-9.06-2.26s-14.47,10.1-13.58,18.11c1.19,10.74,9.93,20.38,15.85,20.38,4.53,0,6.79-2.26,6.79-2.26,0,0,2.26,2.26,6.79,2.26,5.91,0,14.47-9.44,15.85-20.38.92-7.29-4.53-18.11-11.32-18.11s-9.06,2.26-11.32,2.26Z" />
  <path vector-effect="non-scaling-stroke" class="cls-1" d="m16.58,48.49c2.19,3.09,4.96,5.48,7.57,6.79" />
  <path vector-effect="non-scaling-stroke" class="cls-1"
    d="m31.66,23.58c.13-2.12.6-5.41,2.26-9.06,1.42-3.1,3.19-5.35,4.53-6.79" />
  <path vector-effect="non-scaling-stroke" class="cls-1"
    d="m18.07,5.47c-1.38,1.97,1.4,6.59,4.53,9.06,2.63,2.07,9.06,2.26,9.06,2.26,1.72-1.69.32-6.38-2.26-9.06-3.45-3.58-11.32-2.26-11.32-2.26Z" />
  <path vector-effect="non-scaling-stroke" class="cls-1"
    d="m45.3,13.28c-.9-1.68-5.21-.8-5.54-.73-2.6.56-6.45,2.48-6.27,4.81,0,0,3.2.74,5.54.73,4.28-.03,6.27-4.81,6.27-4.81Z" />
  <path vector-effect="non-scaling-stroke" class="cls-1" d="m14.08,43.3c0,.95,1.12,3.05,1.5,3.67" />
  <g>
    <path vector-effect="non-scaling-stroke" class="cls-1"
      d="m42.63,27.35c0,1.17-.48,3.04-1.35,4.15-.97,1.24-2.39,2.1-3.65,2.1" />
    <path vector-effect="non-scaling-stroke" class="cls-1"
      d="m42.63,27.35c0,1.17.48,3.04,1.35,4.15.97,1.24,2.39,2.1,3.65,2.1" />
    <path vector-effect="non-scaling-stroke" class="cls-1"
      d="m42.63,39.84c0-1.17.48-3.04,1.35-4.15.97-1.24,2.39-2.1,3.65-2.1" />
    <path vector-effect="non-scaling-stroke" class="cls-1"
      d="m42.63,39.84c0-1.17-.48-3.04-1.35-4.15-.97-1.24-2.39-2.1-3.65-2.1" />
  </g>
</svg>