<?xml version="1.0" encoding="UTF-8"?>
<svg id="Ebene_1" data-name="Ebene 1" xmlns="http://www.w3.org/2000/svg" viewBox="0 0 64 64">
  <defs>
    <style>
      .cls-1 {
        fill: none;
        stroke: #242427;
        stroke-miterlimit: 10;
        stroke-width: 1.5px;
      }
    </style>
  </defs>
  <g>
    <path vector-effect="non-scaling-stroke" class="cls-1" d="m45.66,45.12s6.19.2,8.48.76c4.85,1.18,7.05,2.72,7.5,3.7,1.85,4.02-2.9,7.3-5.28,8.33-2.76,1.19-6.31,1.93-12.33,1.81-5.87-.11-7.11-1.86-16.24-3.91-4.55-1.02-5.82-1.56-8.48-1.66-4.86-.19-11.08,2.05-13.5,1.87-.36-.03-1.5-.48-2.18-1.35,0,0-1.12-1.09-.59-2.39.7-1.71,9.09-9.32,18.49-7.96,3.11.45,4.77.56,10.99,5.09,4.56,3.32,10.2,6.99,14.71,6.92"/>
    <path vector-effect="non-scaling-stroke" class="cls-1" d="m25.5,22.78s-4.25.03-7.58,1.45c-2.18.93-4.67,3.84-4.67,3.84l-7.05-3.02.73-8.41,3.36-5.6h6.75l-3.32,2.39-1.44,6.73s.27,1.33.76,1.28c1.42-.14,3.59-1.83,4.78-3.02,1.04-1.04,4.29-4.22,4.29-4.22l6.47.1s7.79,8.85,9.7,12.27c2.34,4.17,6.6,17.95,6.6,17.95l.81,5.84s-1.03,1.02-2.34,1.48c-2.03.72-6.54.6-6.54.6"/>
    <polyline vector-effect="non-scaling-stroke" class="cls-1" points="21.73 44.17 23.19 40.41 29.11 38.58"/>
    <polyline vector-effect="non-scaling-stroke" class="cls-1" points="24.33 39.82 25.89 30.61 30.08 26.56"/>
    <path vector-effect="non-scaling-stroke" class="cls-1" d="m25.16,18.05c0,.1,1.25,11.84,1.25,11.84"/>
    <path vector-effect="non-scaling-stroke" class="cls-1" d="m28.32,46.6c1.81.12,6,.08,8.03.06,3.69-.04,5.89-.65,8.9-1.08"/>
    <path vector-effect="non-scaling-stroke" class="cls-1" d="m40.6,46.89c0,.1.31,5.23.31,5.23"/>
  </g>
  <g>
    <path vector-effect="non-scaling-stroke" class="cls-1" d="m43.29,6.81c0,.8-.41,2.06-1.15,2.81-.82.84-2.03,1.42-3.1,1.42"/>
    <path vector-effect="non-scaling-stroke" class="cls-1" d="m43.29,6.81c0,.8.41,2.06,1.15,2.81.82.84,2.03,1.42,3.1,1.42"/>
    <path vector-effect="non-scaling-stroke" class="cls-1" d="m43.29,15.28c0-.8.41-2.06,1.15-2.81.82-.84,2.03-1.42,3.1-1.42"/>
    <path vector-effect="non-scaling-stroke" class="cls-1" d="m43.29,15.28c0-.8-.41-2.06-1.15-2.81-.82-.84-2.03-1.42-3.1-1.42"/>
  </g>
  <g>
    <path vector-effect="non-scaling-stroke" class="cls-1" d="m55.29,18.05c0,1.32-.55,3.43-1.52,4.68-1.09,1.39-2.69,2.37-4.11,2.37"/>
    <path vector-effect="non-scaling-stroke" class="cls-1" d="m55.29,18.05c0,1.32.55,3.43,1.52,4.68,1.09,1.39,2.69,2.37,4.11,2.37"/>
    <path vector-effect="non-scaling-stroke" class="cls-1" d="m55.29,32.13c0-1.32.55-3.43,1.52-4.68,1.09-1.39,2.69-2.37,4.11-2.37"/>
    <path vector-effect="non-scaling-stroke" class="cls-1" d="m55.29,32.13c0-1.32-.55-3.43-1.52-4.68-1.09-1.39-2.69-2.37-4.11-2.37"/>
  </g>
</svg>