<?xml version="1.0" encoding="UTF-8"?>
<svg id="Ebene_1" data-name="Ebene 1" xmlns="http://www.w3.org/2000/svg" viewBox="0 0 64 64">
  <defs>
    <style>
      .cls-1 {
        fill: #242427;
        stroke-width: 0px;
      }

      .cls-2 {
        fill: none;
        stroke: #242427;
        stroke-miterlimit: 10;
        stroke-width: 1.5px;
      }
    </style>
  </defs>
  <rect vector-effect="non-scaling-stroke" class="cls-2" x="5.52" y="56.99" width="53.38" height="4.8" rx="2.28" ry="2.28"/>
  <path vector-effect="non-scaling-stroke" class="cls-2" d="m6.96,57.18l-1.4-25.6.24-.07c1.03,2.11,4.98,9.08,13.78,9.22,8.28.13,11.75-11.24,12.51-14,.14,0,.11,0,.25,0,.42,2.81,2.69,14.35,13.93,14,6.31-.19,11.19-7.38,12.36-9.31l.24.08-1.61,25.22"/>
  <polygon vector-effect="non-scaling-stroke" class="cls-2" points="32.25 52 28.15 45.9 32.25 39.79 36.35 45.9 32.25 52"/>
  <polygon vector-effect="non-scaling-stroke" class="cls-2" points="51.15 52 49.04 48.85 51.15 45.7 53.27 48.85 51.15 52"/>
  <polygon vector-effect="non-scaling-stroke" class="cls-2" points="13.08 52 10.96 48.85 13.08 45.7 15.2 48.85 13.08 52"/>
  <path vector-effect="non-scaling-stroke" class="cls-2" d="m13.12,39.54s2.09-1.27,3.09-3.48c.96-2.11,1.58-4.67,1.8-5.67.13,0,.12,0,.24,0,.34.94,1.25,3.33,2.41,5.67,1.06,2.16,3.06,4.01,3.06,4.01"/>
  <path vector-effect="non-scaling-stroke" class="cls-2" d="m51.15,39.63s-2.35-1.35-3.35-3.57c-.96-2.11-1.58-4.67-1.8-5.67-.13,0-.12,0-.24,0-.34.94-1.25,3.33-2.41,5.67-1.06,2.16-3.06,4.01-3.06,4.01"/>
  <circle vector-effect="non-scaling-stroke" class="cls-2" cx="4.4" cy="27.47" r="3.16"/>
  <circle vector-effect="non-scaling-stroke" class="cls-2" cx="59.85" cy="27.23" r="3.16"/>
  <circle vector-effect="non-scaling-stroke" class="cls-2" cx="32.21" cy="21.41" r="4.25"/>
  <g>
    <path vector-effect="non-scaling-stroke" class="cls-2" d="m13.64,12.32c0,.79-.41,2.05-1.14,2.79-.82.83-2.01,1.41-3.08,1.41"/>
    <path vector-effect="non-scaling-stroke" class="cls-2" d="m13.64,12.32c0,.79.41,2.05,1.14,2.79.82.83,2.01,1.41,3.08,1.41"/>
    <path vector-effect="non-scaling-stroke" class="cls-2" d="m13.64,20.72c0-.79.41-2.05,1.14-2.79.82-.83,2.01-1.41,3.08-1.41"/>
    <path vector-effect="non-scaling-stroke" class="cls-2" d="m13.64,20.72c0-.79-.41-2.05-1.14-2.79-.82-.83-2.01-1.41-3.08-1.41"/>
  </g>
  <g>
    <path vector-effect="non-scaling-stroke" class="cls-1" d="m54.07,14.42c-3.26,1.03-6.8,1.03-10.06,0,3.26-1.03,6.8-1.03,10.06,0h0Z"/>
    <path vector-effect="non-scaling-stroke" class="cls-1" d="m49.04,19.45c-1.03-3.26-1.03-6.8,0-10.06,1.03,3.26,1.03,6.8,0,10.06h0Z"/>
  </g>
  <g>
    <path vector-effect="non-scaling-stroke" class="cls-1" d="m31.41,7.24c-3.26,1.03-6.8,1.03-10.06,0,3.26-1.03,6.8-1.03,10.06,0h0Z"/>
    <path vector-effect="non-scaling-stroke" class="cls-1" d="m26.38,12.27c-1.03-3.26-1.03-6.8,0-10.06,1.03,3.26,1.03,6.8,0,10.06h0Z"/>
  </g>
</svg>