<?xml version="1.0" encoding="UTF-8"?>
<svg id="Ebene_1" data-name="Ebene 1" xmlns="http://www.w3.org/2000/svg" viewBox="0 0 64 64">
  <defs>
    <style>
      .cls-1 {
        stroke-linejoin: round;
      }

      .cls-1, .cls-2 {
        fill: none;
        stroke: #242427;
        stroke-width: 1.5px;
      }

      .cls-2 {
        stroke-miterlimit: 10;
      }

    </style>
  </defs>
  <g>
    <path vector-effect="non-scaling-stroke" class="cls-2" d="m26.99.99c0,.83-.43,2.15-1.19,2.92-.86.87-2.11,1.48-3.22,1.48"/>
    <path vector-effect="non-scaling-stroke" class="cls-2" d="m26.99.99c0,.83.43,2.15,1.19,2.92.86.87,2.11,1.48,3.22,1.48"/>
    <path vector-effect="non-scaling-stroke" class="cls-2" d="m26.99,9.79c0-.83.43-2.15,1.19-2.92.86-.87,2.11-1.48,3.22-1.48"/>
    <path vector-effect="non-scaling-stroke" class="cls-2" d="m26.99,9.79c0-.83-.43-2.15-1.19-2.92-.86-.87-2.11-1.48-3.22-1.48"/>
  </g>
  <g>
    <path vector-effect="non-scaling-stroke" class="cls-2" d="m9.17,2.32c0,1.37-.57,3.57-1.58,4.86-1.13,1.45-2.8,2.46-4.28,2.46"/>
    <path vector-effect="non-scaling-stroke" class="cls-2" d="m9.17,2.32c0,1.37.57,3.57,1.58,4.86,1.13,1.45,2.8,2.46,4.28,2.46"/>
    <path vector-effect="non-scaling-stroke" class="cls-2" d="m9.17,16.96c0-1.37.57-3.57,1.58-4.86,1.13-1.45,2.8-2.46,4.28-2.46"/>
    <path vector-effect="non-scaling-stroke" class="cls-2" d="m9.17,16.96c0-1.37-.57-3.57-1.58-4.86-1.13-1.45-2.8-2.46-4.28-2.46"/>
  </g>
  <g>
    <path vector-effect="non-scaling-stroke" class="cls-2" d="m32.42,19.35s5.21-2.31,9.74-2.39c4.05-.07,8.03.96,14.04,3.86,3.68,1.78,5.88,1.29,5.88,1.29v35.61s-2.76.61-8.09-2.45c-5.54-3.18-9.21-2.88-12.5-2.57-5.65.52-9.07,3.06-9.07,3.06V19.35Z"/>
    <path vector-effect="non-scaling-stroke" class="cls-1" d="m62.08,58.02v4.47s-3.07,0-4.46-.38c-3.87-1.06-7.76-4.31-14.08-4.31-4.78,0-11.13,3.4-11.13,3.4v-5.46"/>
    <path vector-effect="non-scaling-stroke" class="cls-2" d="m36.93,25.99c.3,0,.67.05,1.04.02,1.84-.16,3.92-1.25,6.37-1.16,2.31.08,2.9.17,6.54,1.49,1.11.4,3.07,1.29,5.88,1.63.35.04.85.08,1.26.08"/>
    <path vector-effect="non-scaling-stroke" class="cls-2" d="m36.64,34.33c.3,0,.67.05,1.04.02,1.84-.16,3.92-1.25,6.37-1.16,2.31.08,2.9.17,6.54,1.49,1.11.4,3.07,1.29,5.88,1.63.35.04.85.08,1.26.08"/>
    <path vector-effect="non-scaling-stroke" class="cls-2" d="m36.93,43.23c.3,0,.67.05,1.04.02,1.84-.16,3.92-1.25,6.37-1.16,2.31.08,2.9.17,6.54,1.49,1.11.4,3.07,1.29,5.88,1.63.35.04.85.08,1.26.08"/>
    <path vector-effect="non-scaling-stroke" class="cls-2" d="m32.42,19.35s-5.21-2.31-9.74-2.39c-4.05-.07-8.03.96-14.04,3.86-3.68,1.78-5.88,1.29-5.88,1.29v35.61s2.76.61,8.09-2.45c5.54-3.18,9.21-2.88,12.5-2.57,5.65.52,9.07,3.06,9.07,3.06V19.35Z"/>
    <path vector-effect="non-scaling-stroke" class="cls-1" d="m2.75,58.02v4.47s3.07,0,4.46-.38c3.87-1.06,7.76-4.31,14.08-4.31,4.78,0,11.13,3.4,11.13,3.4v-5.46"/>
    <path vector-effect="non-scaling-stroke" class="cls-2" d="m27.9,25.99c-.3,0-.67.05-1.04.02-1.84-.16-3.92-1.25-6.37-1.16-2.31.08-2.9.17-6.54,1.49-1.11.4-3.07,1.29-5.88,1.63-.35.04-.85.08-1.26.08"/>
    <path vector-effect="non-scaling-stroke" class="cls-2" d="m28.2,34.33c-.3,0-.67.05-1.04.02-1.84-.16-3.92-1.25-6.37-1.16-2.31.08-2.9.17-6.54,1.49-1.11.4-3.07,1.29-5.88,1.63-.35.04-.85.08-1.26.08"/>
    <path vector-effect="non-scaling-stroke" class="cls-2" d="m27.9,43.23c-.3,0-.67.05-1.04.02-1.84-.16-3.92-1.25-6.37-1.16-2.31.08-2.9.17-6.54,1.49-1.11.4-3.07,1.29-5.88,1.63-.35.04-.85.08-1.26.08"/>
  </g>
</svg>