<?xml version="1.0" encoding="UTF-8"?>
<svg id="Ebene_1" data-name="Ebene 1" xmlns="http://www.w3.org/2000/svg" viewBox="0 0 64 64">
  <defs>
    <style>
      .cls-1 {
        fill: #242427;
        stroke-width: 0px;
      }

      .cls-2 {
        fill: none;
        stroke: #242427;
        stroke-miterlimit: 10;
        stroke-width: 1.5px;
      }

    </style>
  </defs>
  <polygon vector-effect="non-scaling-stroke" class="cls-2" points="56.8 45.98 7.14 56.2 7.14 38.53 56.8 28.31 56.8 45.98"/>
  <path vector-effect="non-scaling-stroke" class="cls-2" d="m7.14,38.53L30.4,13.57s8.59-1.48,16.59,3.7c6.38,4.13,9.81,11.04,9.81,11.04"/>
  <path vector-effect="non-scaling-stroke" class="cls-2" d="m41.41,21.23c0,2.25-1.82,4.07-4.07,4.07s-4.07-1.82-4.07-4.07,1.82-4.07,4.07-4.07,4.07,1.82,4.07,4.07Z"/>
  <path vector-effect="non-scaling-stroke" class="cls-2" d="m37.47,20.5c-.2-1.62-.38-4.86,1.03-8.55,1.24-3.26,3.14-5.39,4.28-6.5"/>
  <path vector-effect="non-scaling-stroke" class="cls-2" d="m7.34,45.78c1.49,1.48,3.54,3.06,5.54,2.88,3.45-.31,3.72-5.58,7.29-5.88,2.91-.25,4.36,3.12,7.27,2.89,3.73-.29,3.82-6.03,7.56-6.35,3.03-.26,4.64,3.37,7.68,3.1,3.57-.32,3.67-5.54,7.31-6.05,1.54-.21,3.75.4,7,3.36"/>
  <line vector-effect="non-scaling-stroke" class="cls-2" x1="34.68" y1="54.37" x2="51.88" y2="50.82"/>
  <circle vector-effect="non-scaling-stroke" class="cls-1" cx="54.44" cy="50.28" r="1"/>
  <circle vector-effect="non-scaling-stroke" class="cls-1" cx="46.69" cy="13.37" r="1"/>
  <circle vector-effect="non-scaling-stroke" class="cls-1" cx="50.14" cy="15.37" r="1"/>
</svg>