<?xml version="1.0" encoding="UTF-8"?>
<svg id="Ebene_1" data-name="Ebene 1" xmlns="http://www.w3.org/2000/svg" viewBox="0 0 64 64">
  <defs>
    <style>
      .cls-1 {
        fill: #242427;
        stroke-width: 0px;
      }

      .cls-2 {
        fill: none;
        stroke: #242427;
        stroke-miterlimit: 10;
        stroke-width: 1.5px;
      }
    </style>
  </defs>
  <g>
    <path class="cls-2" d="m40.69,4.1c0,1.36-.56,3.54-1.56,4.82-1.12,1.44-2.77,2.44-4.24,2.44"/>
    <path class="cls-2" d="m40.69,4.1c0,1.36.56,3.54,1.56,4.82,1.12,1.44,2.77,2.44,4.24,2.44"/>
    <path class="cls-2" d="m40.69,18.61c0-1.36.56-3.54,1.56-4.82,1.12-1.44,2.77-2.44,4.24-2.44"/>
    <path class="cls-2" d="m40.69,18.61c0-1.36-.56-3.54-1.56-4.82-1.12-1.44-2.77-2.44-4.24-2.44"/>
  </g>
  <g>
    <path class="cls-1" d="m21.7,17.51c-3.4,1.03-7.06,1.03-10.46,0,3.39-1.04,7.06-1.03,10.46,0h0Z"/>
    <path class="cls-1" d="m16.47,22.74c-1.03-3.4-1.03-7.06,0-10.46,1.04,3.39,1.03,7.06,0,10.46h0Z"/>
  </g>
  <path class="cls-2" d="m51.39,43.15c6.64.92,11.44,4.85,11.44,4.85,0,0-3.36,9.16-14.58,11.53-9.71,2.05-16.02-5.06-16.02-5.06"/>
  <path class="cls-2" d="m38.9,33.86c6.07-4.37,13.32-4.34,13.32-4.34,0,0,3.15,9.24-4.08,18.14-6.26,7.71-15.64,6.15-15.64,6.15"/>
  <path class="cls-2" d="m12.62,43.15c-6.64.92-11.45,4.85-11.45,4.85,0,0,3.36,9.16,14.58,11.53,9.71,2.05,16.02-5.06,16.02-5.06"/>
  <path class="cls-2" d="m24.79,33.64c-6.01-4.16-13.01-4.12-13.01-4.12,0,0-3.15,9.24,4.08,18.14,6.26,7.71,15.64,6.15,15.64,6.15"/>
  <path class="cls-2" d="m40.06,39.31c0,9.93-8.27,14.63-8.27,14.63,0,0-8.27-5.59-8.27-14.63,0-10.01,8.27-16.65,8.27-16.65,0,0,8.27,5.19,8.27,16.65Z"/>
</svg>