<?xml version="1.0" encoding="UTF-8"?>
<svg id="Ebene_1" data-name="Ebene 1" xmlns="http://www.w3.org/2000/svg" viewBox="0 0 64 64">
  <defs>
    <style>
      .cls-1 {
        fill: none;
        stroke: #242427;
        stroke-linejoin: round;
        stroke-width: 1.5px;
      }
    </style>
  </defs>
  <path vector-effect="non-scaling-stroke" class="cls-1" d="m29.22,32.01c.68-2.21,2.58-5.62,4.77-9.29,2.48-4.17,3.94-5.96,5.7-9.24,3.51-6.53,2.89-12.26,2.89-12.26,0,0,3.61,6.54,4.79,13.44,1.12,6.52-4.15,12.18-4.15,12.18,0,0,3.08-4.85,7.66-5.24s8.68,3.19,8.68,3.19c0,0-2.65.58-4.72,2.55-5.36,5.11-4.51,8.5-8.17,12.64-5.59,6.32-15.41,2.94-21.41,7.45-4.88,3.67-7.79,14.85-10.39,15.28-4.25.7-9.94-6-9.7-7.41.43-2.6,5.94-4.27,14.68-12.09,6.41-5.73,6.43-7.79,6.43-7.79,0,0-4.72.09-9.24-5.15C9.02,20.98,6.32,1.31,6.32,1.31c0,0,14.34,3.96,21.45,11.49,2.32,2.46,2.77,5.68,3.06,7.92.22,1.66.47,6.69.47,6.69"/>
  <path vector-effect="non-scaling-stroke" class="cls-1" d="m14.79,13.61c.33,1.22.74,2.55,1.28,3.96.62,1.63,1.29,3.08,1.96,4.34"/>
  <line vector-effect="non-scaling-stroke" class="cls-1" x1="39.09" y1="44.05" x2="34.7" y2="50.43"/>
  <line vector-effect="non-scaling-stroke" class="cls-1" x1="32.89" y1="44.82" x2="29.73" y2="49.42"/>
  <line vector-effect="non-scaling-stroke" class="cls-1" x1="15.43" y1="39.19" x2="7.99" y2="45.66"/>
  <line vector-effect="non-scaling-stroke" class="cls-1" x1="6.84" y1="46.65" x2="4.43" y2="48.75"/>
</svg>