<?xml version="1.0" encoding="UTF-8"?>
<svg id="Ebene_1" data-name="Ebene 1" xmlns="http://www.w3.org/2000/svg" viewBox="0 0 64 64">
  <defs>
    <style>
      .cls-1 {
        stroke-width: 0px;
      }

      .cls-1, .cls-2 {
        fill: #242427;
      }

      .cls-2, .cls-3 {
        stroke: #242427;
        stroke-miterlimit: 10;
      }

      .cls-3 {
        fill: none;
        stroke-width: 1.5px;
      }
    </style>
  </defs>
  <g>
    <path vector-effect="non-scaling-stroke" class="cls-3" d="m52.49,41.49c-3.23-8.79-6.12-17.1-6.41-18.16-.58-2.14.59-4.33,2.62-4.88s4.15.74,4.73,2.88c.39,1.42,3.61,17.05,5.42,27.97"/>
    <path vector-effect="non-scaling-stroke" class="cls-3" d="m51.64,13.06c.66,2.44-.72,4.61-2.99,5.23s-4.92-.64-5.53-2.91.46-9.12,3.3-8.91c.67.05.61,1.29,1.68,2.73s2.91,1.54,3.54,3.86Z"/>
  </g>
  <path vector-effect="non-scaling-stroke" class="cls-3" d="m15.61,44.56c6.3.56,6.86,1.22,11.04,2.54,3.52,1.11,10.4,3.65,12.04,4.84,9.39,6.79,17.55,8.82,19.78,8.77,2.86-.06,4.45-2.71,4.09-3.75-4.22-12.21-18.2-25.32-29.97-28.6-11.84-3.3-28.16-1.07-30.13,1.4-1.79,2.25-.93,4.83-.33,8.48.52,3.17,1.45,5.81,2.35,7.82.44.97,1.18,1.77,2.13,2.26l2.38,1.23c2.55,1.32,5.3,2.19,8.14,2.58l18.33,2.49,7.41.1"/>
  <path vector-effect="non-scaling-stroke" class="cls-3" d="m44.97,43.71l1.17,4.93s.5,1.12,5.06,4.7c3.2,2.51,6.83,3.99,6.83,3.99"/>
  <path vector-effect="non-scaling-stroke" class="cls-3" d="m13.54,44.31c-.16-.01-3.25-.24-3.25-.24"/>
  <line vector-effect="non-scaling-stroke" class="cls-3" x1="44.66" y1="42.16" x2="44.42" y2="40.05"/>
  <g>
    <path vector-effect="non-scaling-stroke" class="cls-1" d="m39.26,8.07c-3.09,1.03-6.47,1.03-9.56,0,3.09-1.03,6.47-1.03,9.56,0h0Z"/>
    <path vector-effect="non-scaling-stroke" class="cls-1" d="m34.48,12.85c-1.03-3.09-1.03-6.47,0-9.56,1.03,3.09,1.03,6.47,0,9.56h0Z"/>
  </g>
  <polygon vector-effect="non-scaling-stroke" class="cls-2" points="35.95 32.83 37.68 33.81 39.08 31.43 43.36 28.72 40.54 24.07 37.19 28.13 35.95 32.83"/>
</svg>