<?xml version="1.0" encoding="UTF-8"?>
<svg id="Ebene_1" data-name="Ebene 1" xmlns="http://www.w3.org/2000/svg" viewBox="0 0 64 64">
  <defs>
    <style>
      .cls-1 {
        fill: none;
        stroke: #242427;
        stroke-miterlimit: 10;
        stroke-width: 1.3px;
      }
    </style>
  </defs>
  <line vector-effect="non-scaling-stroke" class="cls-1" x1="32" y1="3.96" x2="32" y2="59.81"/>
  <line vector-effect="non-scaling-stroke" class="cls-1" x1="59.93" y1="31.89" x2="4.07" y2="31.89"/>
  <line vector-effect="non-scaling-stroke" class="cls-1" x1="49.61" y1="14.27" x2="14.39" y2="49.5"/>
  <line vector-effect="non-scaling-stroke" class="cls-1" x1="49.61" y1="49.5" x2="14.39" y2="14.27"/>
  <polyline vector-effect="non-scaling-stroke" class="cls-1" points="24.04 5.89 32 12.14 40.04 5.89"/>
  <polyline vector-effect="non-scaling-stroke" class="cls-1" points="24.04 58.27 32 52.01 40.04 58.27"/>
  <polyline vector-effect="non-scaling-stroke" class="cls-1" points="58.23 24.08 51.97 32.04 58.23 40.08"/>
  <polyline vector-effect="non-scaling-stroke" class="cls-1" points="5.85 24.08 12.1 32.04 5.85 40.08"/>
  <polyline vector-effect="non-scaling-stroke" class="cls-1" points="41.7 13.91 42.61 21.46 50.21 22.41"/>
  <polyline vector-effect="non-scaling-stroke" class="cls-1" points="13.87 41.74 21.42 42.65 22.37 50.25"/>
  <polyline vector-effect="non-scaling-stroke" class="cls-1" points="50.21 41.74 42.65 42.65 41.7 50.25"/>
  <polyline vector-effect="non-scaling-stroke" class="cls-1" points="22.37 13.91 21.46 21.46 13.87 22.41"/>
</svg>