<?xml version="1.0" encoding="UTF-8"?>
<svg id="Ebene_1" data-name="Ebene 1" xmlns="http://www.w3.org/2000/svg" viewBox="0 0 64 64">
  <defs>
    <style>
      .cls-1 {
        fill: none;
        stroke: #242427;
        stroke-miterlimit: 10;
        stroke-width: 1.5px;
      }
    </style>
  </defs>
  <circle class="cls-1" cx="31.76" cy="29.14" r="9.98"/>
  <path class="cls-1" d="m28.55,44.32h6.67c8.62,0,15.61,7,15.61,15.61v3.18H12.94v-3.18c0-8.62,7-15.61,15.61-15.61Z"/>
  <g>
    <line vector-effect="non-scaling-stroke" class="cls-1" x1="3.57" y1="29.77" x2="8.07" y2="29.77"/>
    <line vector-effect="non-scaling-stroke" class="cls-1" x1="12.14" y1="29.77" x2="16.64" y2="29.77"/>
  </g>
  <g>
    <line vector-effect="non-scaling-stroke" class="cls-1" x1="5.13" y1="17.32" x2="9.45" y2="18.59"/>
    <line vector-effect="non-scaling-stroke" class="cls-1" x1="13.35" y1="19.73" x2="17.67" y2="21"/>
  </g>
  <g>
    <line vector-effect="non-scaling-stroke" class="cls-1" x1="16.24" y1="4.17" x2="18.72" y2="7.92"/>
    <line vector-effect="non-scaling-stroke" class="cls-1" x1="20.97" y1="11.31" x2="23.46" y2="15.06"/>
  </g>
  <g>
    <line vector-effect="non-scaling-stroke" class="cls-1" x1="48.54" y1="4.17" x2="46.05" y2="7.92"/>
    <line vector-effect="non-scaling-stroke" class="cls-1" x1="43.81" y1="11.31" x2="41.32" y2="15.06"/>
  </g>
  <g>
    <line vector-effect="non-scaling-stroke" class="cls-1" x1="31.96" y1=".89" x2="31.96" y2="5.39"/>
    <line vector-effect="non-scaling-stroke" class="cls-1" x1="31.96" y1="9.46" x2="31.96" y2="13.96"/>
  </g>
  <g>
    <line vector-effect="non-scaling-stroke" class="cls-1" x1="60.43" y1="29.77" x2="55.93" y2="29.77"/>
    <line vector-effect="non-scaling-stroke" class="cls-1" x1="51.86" y1="29.77" x2="47.36" y2="29.77"/>
  </g>
  <g>
    <line vector-effect="non-scaling-stroke" class="cls-1" x1="58.87" y1="17.32" x2="54.55" y2="18.59"/>
    <line vector-effect="non-scaling-stroke" class="cls-1" x1="50.65" y1="19.73" x2="46.33" y2="21"/>
  </g>
</svg>