<?xml version="1.0" encoding="UTF-8"?>
<svg id="Ebene_1" data-name="Ebene 1" xmlns="http://www.w3.org/2000/svg" viewBox="0 0 64 64">
  <defs>
    <style>
      .cls-1 {
        fill: #242427;
        stroke-width: 0px;
      }

      .cls-2 {
        fill: none;
        stroke: #242427;
        stroke-miterlimit: 10;
        stroke-width: 1.5px;
      }
    </style>
  </defs>
  <g>
    <path vector-effect="non-scaling-stroke" class="cls-2" d="m57.04,18.87c0,.75-.39,1.94-1.08,2.65-.77.79-1.91,1.34-2.92,1.34"/>
    <path vector-effect="non-scaling-stroke" class="cls-2" d="m57.04,18.87c0,.75.39,1.94,1.08,2.65.77.79,1.91,1.34,2.92,1.34"/>
    <path vector-effect="non-scaling-stroke" class="cls-2" d="m57.04,26.85c0-.75.39-1.94,1.08-2.65.77-.79,1.91-1.34,2.92-1.34"/>
    <path vector-effect="non-scaling-stroke" class="cls-2" d="m57.04,26.85c0-.75-.39-1.94-1.08-2.65-.77-.79-1.91-1.34-2.92-1.34"/>
  </g>
  <g>
    <path vector-effect="non-scaling-stroke" class="cls-2" d="m45.13,4.32c0,1.24-.51,3.23-1.43,4.4-1.03,1.31-2.53,2.23-3.88,2.23"/>
    <path vector-effect="non-scaling-stroke" class="cls-2" d="m45.13,4.32c0,1.24.51,3.23,1.43,4.4,1.03,1.31,2.53,2.23,3.88,2.23"/>
    <path vector-effect="non-scaling-stroke" class="cls-2" d="m45.13,17.58c0-1.24.51-3.23,1.43-4.4,1.03-1.31,2.53-2.23,3.88-2.23"/>
    <path vector-effect="non-scaling-stroke" class="cls-2" d="m45.13,17.58c0-1.24-.51-3.23-1.43-4.4-1.03-1.31-2.53-2.23-3.88-2.23"/>
  </g>
  <g>
    <path vector-effect="non-scaling-stroke" class="cls-1" d="m12.52,54.9c-3.02,1.36-6.54,1.37-9.56,0,3.02-1.37,6.54-1.36,9.56,0h0Z"/>
    <path vector-effect="non-scaling-stroke" class="cls-1" d="m7.74,59.68c-1.36-3.02-1.37-6.54,0-9.56,1.37,3.02,1.36,6.54,0,9.56h0Z"/>
  </g>
  <path vector-effect="non-scaling-stroke" class="cls-2" d="m36.49,43.11c-10.54-1.46-17.91-11.19-16.45-21.74.79-5.7,3.99-10.46,8.43-13.41-11.11.48-20.64,8.82-22.22,20.23-1.78,12.85,7.19,24.7,20.04,26.48,11.54,1.6,22.28-5.48,25.63-16.25-4.07,3.61-9.63,5.49-15.44,4.68Z"/>
</svg>