<?xml version="1.0" encoding="UTF-8"?>
<svg id="Ebene_1" data-name="Ebene 1" xmlns="http://www.w3.org/2000/svg" viewBox="0 0 64 64">
  <defs>
    <style>
      .cls-1 {
        fill: none;
        stroke: #242427;
        stroke-miterlimit: 10;
        stroke-width: 1.5px;
      }
    </style>
  </defs>
  <g>
    <polyline vector-effect="non-scaling-stroke" class="cls-1" points="63.51 27.85 31.86 2.98 .2 27.85"/>
    <line vector-effect="non-scaling-stroke" class="cls-1" x1="54.47" y1="33.26" x2="54.47" y2="21.06"/>
    <polyline vector-effect="non-scaling-stroke" class="cls-1" points="18.29 13.95 18.29 5.24 9.25 5.24 9.25 21.06 9.25 54.09 27.96 54.09"/>
  </g>
  <circle vector-effect="non-scaling-stroke" class="cls-1" cx="34.34" cy="48.65" r=".39"/>
  <g>
    <g>
      <path vector-effect="non-scaling-stroke" class="cls-1" d="m43.82,34.35c-1.77,0-1.77-1.77-7.1-1.77s-11.34,7.92-10.65,14.19c.93,8.42,7.78,15.97,12.42,15.97,3.55,0,5.32-1.77,5.32-1.77,0,0,1.77,1.77,5.32,1.77,4.63,0,11.34-7.4,12.42-15.97.72-5.71-3.55-14.19-8.87-14.19s-7.1,1.77-8.87,1.77Z"/>
      <path vector-effect="non-scaling-stroke" class="cls-1" d="m43.82,34.35c.1-1.66.47-4.24,1.77-7.1,1.11-2.43,2.5-4.19,3.55-5.32"/>
      <path vector-effect="non-scaling-stroke" class="cls-1" d="m33.18,20.16c-1.08,1.55,1.1,5.17,3.55,7.1,2.06,1.62,7.1,1.77,7.1,1.77,1.35-1.32.25-5-1.77-7.1-2.71-2.8-8.87-1.77-8.87-1.77Z"/>
    </g>
    <path vector-effect="non-scaling-stroke" class="cls-1" d="m33.79,54.6c1.21,1.71,2.74,3.03,4.18,3.75"/>
    <path vector-effect="non-scaling-stroke" class="cls-1" d="m32.41,51.73c0,.52.62,1.68.83,2.03"/>
  </g>
</svg>