<?xml version="1.0" encoding="UTF-8"?>
<svg id="Ebene_1" data-name="Ebene 1" xmlns="http://www.w3.org/2000/svg" viewBox="0 0 64 64">
  <defs>
    <style>
      .cls-1 {
        fill: none;
        stroke: #242427;
        stroke-linejoin: round;
        stroke-width: 1.5px;
      }
    </style>
  </defs>
  <path vector-effect="non-scaling-stroke" class="cls-1" d="m55.31,61.96c-3.12-2.19-5.53-2.5-7.17-2.35-2.06.18-5.19.51-5.19.51,0,0-3.47.86-3.57,0-.12-1.11.35-3.02,1.88-3.8s4.78-1.57,4.78-1.57c0,0-7.92-7.52-9.13-8.96-.54-.64-.85-1.46-.96-2.35-.02-.19-.14-.77.21-1.29.84-1.26,1.94-.89,1.94-.89,0,0-1.34-2-.01-3.26,1.28-1.23,2.79-.31,2.79-.31,0,0,2.14-1.38,3.33-1.08,1.09.28,2.85,1.58,3.49,1.82.93.35,2.87-1.32,4.23-.31,1.42,1.05,3.41,3.42,8.58,8.7.6.61.23,3.45.94,4.29,1.03,1.23,2.63,2.47,3.17,2.88"/>
  <line vector-effect="non-scaling-stroke" class="cls-1" x1="37.05" y1="40.02" x2="44.73" y2="47.7"/>
  <line vector-effect="non-scaling-stroke" class="cls-1" x1="46.52" y1="37.77" x2="52.33" y2="43.58"/>
  <line vector-effect="non-scaling-stroke" class="cls-1" x1="40.56" y1="37.42" x2="48.24" y2="45.11"/>
  <path vector-effect="non-scaling-stroke" class="cls-1" d="m8.69,61.96c3.12-2.19,5.53-2.5,7.17-2.35,2.06.18,5.19.51,5.19.51,0,0,3.47.86,3.57,0,.12-1.11-.35-3.02-1.88-3.8s-4.78-1.57-4.78-1.57c0,0,7.92-7.52,9.13-8.96.54-.64.85-1.46.96-2.35.02-.19.14-.77-.21-1.29-.84-1.26-1.94-.89-1.94-.89,0,0,1.34-2,.01-3.26s-2.79-.31-2.79-.31c0,0-2.14-1.38-3.33-1.08-1.09.28-2.85,1.58-3.49,1.82-.93.35-2.87-1.32-4.23-.31s-3.41,3.42-8.58,8.7c-.6.61-.23,3.45-.94,4.29-1.03,1.23-2.63,2.47-3.17,2.88"/>
  <line vector-effect="non-scaling-stroke" class="cls-1" x1="26.95" y1="40.02" x2="19.27" y2="47.7"/>
  <line vector-effect="non-scaling-stroke" class="cls-1" x1="17.48" y1="37.77" x2="11.67" y2="43.58"/>
  <line vector-effect="non-scaling-stroke" class="cls-1" x1="23.44" y1="37.42" x2="15.76" y2="45.11"/>
  <path vector-effect="non-scaling-stroke" class="cls-1" d="m55.31,1.96c-3.12,2.19-5.53,2.5-7.17,2.35-2.06-.18-5.19-.51-5.19-.51,0,0-3.47-.86-3.57,0-.12,1.11.35,3.02,1.88,3.8s4.78,1.57,4.78,1.57c0,0-7.92,7.52-9.13,8.96-.54.64-.85,1.46-.96,2.35-.02.19-.14.77.21,1.29.84,1.26,1.94.89,1.94.89,0,0-1.34,2-.01,3.26,1.28,1.23,2.79.31,2.79.31,0,0,2.14,1.38,3.33,1.08,1.09-.28,2.85-1.58,3.49-1.82.93-.35,2.87,1.32,4.23.31,1.42-1.05,3.41-3.42,8.58-8.7.6-.61.23-3.45.94-4.29,1.03-1.23,2.63-2.47,3.17-2.88"/>
  <line vector-effect="non-scaling-stroke" class="cls-1" x1="37.05" y1="23.91" x2="44.73" y2="16.23"/>
  <line vector-effect="non-scaling-stroke" class="cls-1" x1="46.52" y1="26.16" x2="52.33" y2="20.34"/>
  <line vector-effect="non-scaling-stroke" class="cls-1" x1="40.56" y1="26.5" x2="48.24" y2="18.82"/>
  <path vector-effect="non-scaling-stroke" class="cls-1" d="m8.69,1.96c3.12,2.19,5.53,2.5,7.17,2.35,2.06-.18,5.19-.51,5.19-.51,0,0,3.47-.86,3.57,0,.12,1.11-.35,3.02-1.88,3.8s-4.78,1.57-4.78,1.57c0,0,7.92,7.52,9.13,8.96.54.64.85,1.46.96,2.35.02.19.14.77-.21,1.29-.84,1.26-1.94.89-1.94.89,0,0,1.34,2,.01,3.26s-2.79.31-2.79.31c0,0-2.14,1.38-3.33,1.08-1.09-.28-2.85-1.58-3.49-1.82-.93-.35-2.87,1.32-4.23.31s-3.41-3.42-8.58-8.7c-.6-.61-.23-3.45-.94-4.29-1.03-1.23-2.63-2.47-3.17-2.88"/>
  <line vector-effect="non-scaling-stroke" class="cls-1" x1="26.95" y1="23.91" x2="19.27" y2="16.23"/>
  <line vector-effect="non-scaling-stroke" class="cls-1" x1="17.48" y1="26.16" x2="11.67" y2="20.34"/>
  <line vector-effect="non-scaling-stroke" class="cls-1" x1="23.44" y1="26.5" x2="15.76" y2="18.82"/>
</svg>