<?xml version="1.0" encoding="UTF-8"?>
<svg id="Ebene_1" data-name="Ebene 1" xmlns="http://www.w3.org/2000/svg" viewBox="0 0 64 64">
  <defs>
    <style>
      .cls-1 {
        fill: #242427;
        stroke-width: 0px;
      }

      .cls-2 {
        fill: none;
        stroke: #242427;
        stroke-miterlimit: 10;
        stroke-width: 1.5px;
      }

    </style>
  </defs>
  <circle class="cls-1" cx="48.25" cy="36.56" r="1"/>
  <g>
    <circle vector-effect="non-scaling-stroke" class="cls-2" cx="32" cy="36.9" r="20.01"/>
    <line vector-effect="non-scaling-stroke" class="cls-2" x1="32" y1="12.78" x2="32" y2="16.89"/>
    <line vector-effect="non-scaling-stroke" class="cls-2" x1="32" y1="22.98" x2="32" y2="39.51"/>
    <line vector-effect="non-scaling-stroke" class="cls-2" x1="19.96" y1="38.61" x2="32.61" y2="38.61"/>
    <line vector-effect="non-scaling-stroke" class="cls-2" x1="28.07" y1="12.16" x2="35.93" y2="12.16"/>
    <line vector-effect="non-scaling-stroke" class="cls-2" x1="21.55" y1="53.5" x2="17.63" y2="60.71"/>
    <line vector-effect="non-scaling-stroke" class="cls-2" x1="43.67" y1="53.5" x2="47.59" y2="60.71"/>
    <line vector-effect="non-scaling-stroke" class="cls-2" x1="22.26" y1="13.57" x2="12.75" y2="20.62"/>
    <line vector-effect="non-scaling-stroke" class="cls-2" x1="42" y1="13.57" x2="51.51" y2="20.62"/>
  </g>
  <polyline vector-effect="non-scaling-stroke" class="cls-2" points="6.48 3.75 6.48 7.63 10.03 7.63 10.03 10.95 13.97 10.95"/>
  <polyline vector-effect="non-scaling-stroke" class="cls-2" points="2.02 15.4 4.66 18.24 7.26 15.83 9.52 18.26"/>
  <polyline vector-effect="non-scaling-stroke" class="cls-2" points="56.96 3.75 56.96 7.63 53.41 7.63 53.41 10.95 49.47 10.95"/>
  <polyline vector-effect="non-scaling-stroke" class="cls-2" points="61.41 15.4 58.78 18.24 56.18 15.83 53.92 18.26"/>
  <path vector-effect="non-scaling-stroke" class="cls-2" d="m48.01,39.22c-.21,1.2-.57,2.65-1.22,4.22-1.1,2.66-3.09,4.48-4.22,5.72"/>
</svg>