<?xml version="1.0" encoding="UTF-8"?>
<svg id="Ebene_1" data-name="Ebene 1" xmlns="http://www.w3.org/2000/svg" viewBox="0 0 64 64">
  <defs>
    <style>
      .cls-1 {
        fill: none;
        stroke: #242427;
        stroke-miterlimit: 10;
        stroke-width: 1.5px;
      }
    </style>
  </defs>
  <g>
    <path vector-effect="non-scaling-stroke" class="cls-1" d="m13.25,27.39S24.24,2.95,47.4,15.19c16.78,8.87,5.72,31.49,5.72,31.49,0,0-4.19-.02-8.72-2.2C14.42,30.06,13.25,27.39,13.25,27.39Z"/>
    <polyline vector-effect="non-scaling-stroke" class="cls-1" points="31.43 20.37 27.44 24.78 22.9 33.59"/>
    <polyline vector-effect="non-scaling-stroke" class="cls-1" points="50.42 37.12 48.61 42.44 46.3 45.29"/>
    <polyline vector-effect="non-scaling-stroke" class="cls-1" points="53.48 20.37 53.83 26.64 52.5 31.67"/>
    <path vector-effect="non-scaling-stroke" class="cls-1" d="m13.25,27.39l-11.24,2.77s-.35.81-.28,1.21c.22,1.37,1.41,2.26,4.15,3.72,2.16,1.16,3.15,1.37,6.03,1.77,4.57.64,15.05-1.09,15.05-1.09"/>
    <path vector-effect="non-scaling-stroke" class="cls-1" d="m42.48,43.69l1.37,2.09s6.37,7.2,12.9,10.87c.51.29,1.94.74,2.38.35.3-.27,0-1.55,0-1.55l-6.24-9.63"/>
    <path vector-effect="non-scaling-stroke" class="cls-1" d="m37.12,11.87l-.96-2.84s0-1.81,2.36-2.15c2.16-.31,3.23,1.08,3.23,1.08l5.96,5.69.48,1.7"/>
    <path vector-effect="non-scaling-stroke" class="cls-1" d="m47.4,15.19c.26,0,2.14-1.38,2.14-1.38h10.04s2.94,1.7,2.7,4.2c-.34,3.51-3.01,5.2-3.01,5.2h-2.34l-2.87-1.06"/>
    <polyline vector-effect="non-scaling-stroke" class="cls-1" points="48.71 15.18 50.3 15.18 56.84 18.2 57.41 19.62 57.41 22.53"/>
    <path vector-effect="non-scaling-stroke" class="cls-1" d="m41.24,13.11s-2.04,1.64-2.92,3.8c-1.26,3.08-1.12,7.83-1.12,7.83l3.19-2.7,2.39,3.97s.78-4.87,1.85-6.8c.82-1.49,2.4-4.05,2.4-4.05"/>
  </g>
  <path vector-effect="non-scaling-stroke" class="cls-1" d="m17.41,15.44c.74-.86,1.74-1.87,3.03-2.86,1.16-.88,2.26-1.52,3.21-1.99"/>
  <path vector-effect="non-scaling-stroke" class="cls-1" d="m15.41,17.18c-1.04,1.3-2.08,2.6-3.12,3.9"/>
</svg>