<?xml version="1.0" encoding="UTF-8"?>
<svg id="Ebene_1" data-name="Ebene 1" xmlns="http://www.w3.org/2000/svg" viewBox="0 0 64 64">
  <defs>
    <style>
      .cls-1 {
        fill: #242427;
        stroke-width: 0px;
      }

      .cls-2 {
        fill: none;
        stroke: #242427;
        stroke-miterlimit: 10;
        stroke-width: 1.5px;
      }
    </style>
  </defs>
  <line vector-effect="non-scaling-stroke" class="cls-2" x1="21.3" y1="21.63" x2="26.84" y2="16.4"/>
  <g>
    <rect vector-effect="non-scaling-stroke" class="cls-2" x="16.84" y="49.46" width="40.89" height="4.89" rx="2.28" ry="2.28" transform="translate(-15.66 16.12) rotate(-20.25)"/>
    <circle vector-effect="non-scaling-stroke" class="cls-2" cx="20.66" cy="6.69" r="3.7"/>
    <path vector-effect="non-scaling-stroke" class="cls-2" d="m20.66,54.89l.88-44.21c0-.49.61-.71.94-.34l29.26,33.09"/>
    <line vector-effect="non-scaling-stroke" class="cls-2" x1="21.44" y1="30.82" x2="31.88" y2="20.96"/>
    <line vector-effect="non-scaling-stroke" class="cls-2" x1="20.96" y1="41.01" x2="36.4" y2="26.68"/>
    <line vector-effect="non-scaling-stroke" class="cls-2" x1="30.55" y1="51.8" x2="45.99" y2="37.47"/>
    <line vector-effect="non-scaling-stroke" class="cls-2" x1="20.5" y1="51.19" x2="31.36" y2="41.11"/>
    <line vector-effect="non-scaling-stroke" class="cls-2" x1="37.25" y1="35.52" x2="41.67" y2="31.42"/>
    <line vector-effect="non-scaling-stroke" class="cls-2" x1="33.28" y1="39.16" x2="35.49" y2="37.11"/>
  </g>
  <g>
    <path vector-effect="non-scaling-stroke" class="cls-2" d="m55.46,21.28c0,.75-.39,1.94-1.08,2.65-.77.79-1.91,1.34-2.92,1.34"/>
    <path vector-effect="non-scaling-stroke" class="cls-2" d="m55.46,21.28c0,.75.39,1.94,1.08,2.65.77.79,1.91,1.34,2.92,1.34"/>
    <path vector-effect="non-scaling-stroke" class="cls-2" d="m55.46,29.26c0-.75.39-1.94,1.08-2.65.77-.79,1.91-1.34,2.92-1.34"/>
    <path vector-effect="non-scaling-stroke" class="cls-2" d="m55.46,29.26c0-.75-.39-1.94-1.08-2.65-.77-.79-1.91-1.34-2.92-1.34"/>
  </g>
  <g>
    <path vector-effect="non-scaling-stroke" class="cls-2" d="m10.52,10.8c0,.75-.39,1.94-1.08,2.65-.77.79-1.91,1.34-2.92,1.34"/>
    <path vector-effect="non-scaling-stroke" class="cls-2" d="m10.52,10.8c0,.75.39,1.94,1.08,2.65.77.79,1.91,1.34,2.92,1.34"/>
    <path vector-effect="non-scaling-stroke" class="cls-2" d="m10.52,18.78c0-.75.39-1.94,1.08-2.65.77-.79,1.91-1.34,2.92-1.34"/>
    <path vector-effect="non-scaling-stroke" class="cls-2" d="m10.52,18.78c0-.75-.39-1.94-1.08-2.65-.77-.79-1.91-1.34-2.92-1.34"/>
  </g>
  <g>
    <path vector-effect="non-scaling-stroke" class="cls-2" d="m6.52,30.88c0,.75-.39,1.94-1.08,2.65-.77.79-1.91,1.34-2.92,1.34"/>
    <path vector-effect="non-scaling-stroke" class="cls-2" d="m6.52,30.88c0,.75.39,1.94,1.08,2.65.77.79,1.91,1.34,2.92,1.34"/>
    <path vector-effect="non-scaling-stroke" class="cls-2" d="m6.52,38.86c0-.75.39-1.94,1.08-2.65.77-.79,1.91-1.34,2.92-1.34"/>
    <path vector-effect="non-scaling-stroke" class="cls-2" d="m6.52,38.86c0-.75-.39-1.94-1.08-2.65-.77-.79-1.91-1.34-2.92-1.34"/>
  </g>
  <g>
    <path vector-effect="non-scaling-stroke" class="cls-1" d="m45.07,12.79c-3.09,1.03-6.47,1.03-9.56,0,3.09-1.03,6.47-1.03,9.56,0h0Z"/>
    <path vector-effect="non-scaling-stroke" class="cls-1" d="m40.29,17.57c-1.03-3.09-1.03-6.47,0-9.56,1.03,3.09,1.03,6.47,0,9.56h0Z"/>
  </g>
  <g>
    <path vector-effect="non-scaling-stroke" class="cls-1" d="m58.89,56.08c-3.09,1.03-6.47,1.03-9.56,0,3.09-1.03,6.47-1.03,9.56,0h0Z"/>
    <path vector-effect="non-scaling-stroke" class="cls-1" d="m54.11,60.86c-1.03-3.09-1.03-6.47,0-9.56,1.03,3.09,1.03,6.47,0,9.56h0Z"/>
  </g>
</svg>